<?xml version="1.0" encoding="iso-8859-1"?>
<svg version="1.1" id="Capa_1" xmlns="http://www.w3.org/2000/svg" xmlns:xlink="http://www.w3.org/1999/xlink" x="0px" y="0px"
	 viewBox="0 0 511.999 511.999" style="enable-background:new 0 0 511.999 511.999;" xml:space="preserve">
<g>
	<g>
		<g>
			<path d="M320.962,333.927c-2.284,2.621-5.582,4.125-9.048,4.125c-3.465,0-6.763-1.504-9.048-4.125
				c-2.723-3.123-7.46-3.448-10.582-0.726c-3.123,2.721-3.447,7.459-0.727,10.581c5.135,5.891,12.555,9.27,20.356,9.27
				c7.804,0,15.224-3.379,20.357-9.271c2.722-3.123,2.396-7.861-0.728-10.582C328.42,330.478,323.682,330.803,320.962,333.927z"/>
			<path d="M416.036,227.976c7.206-10.902,11.416-23.949,11.416-37.967v-72.047c0-38.073-30.976-69.047-69.048-69.047H139.911
				c-4.142,0-7.5,3.358-7.5,7.5s3.358,7.5,7.5,7.5h218.492c29.803,0,54.048,24.246,54.048,54.047v72.047
				c0,29.802-24.246,54.047-54.048,54.047H160.383c-0.014,0-0.029,0-0.043,0h-57.566c-13.092,0-25.624,6.234-33.521,16.676
				c-11.588,15.322-27.307,26.746-45.457,33.037c-3.308,1.147-5.691-0.533-6.562-1.308c-0.871-0.775-2.815-2.947-2.061-6.366
				c6.778-30.705,10.215-62.215,10.215-93.657v-74.477c0-29.802,24.246-54.047,54.047-54.047h25.134c4.142,0,7.5-3.358,7.5-7.5
				c0-4.142-3.358-7.5-7.5-7.5H79.435c-38.073,0-69.047,30.975-69.047,69.047v74.477c0,30.356-3.318,60.779-9.862,90.424
				c-1.711,7.75,0.808,15.528,6.737,20.805c4.058,3.61,9.091,5.499,14.269,5.499c2.389,0,4.81-0.402,7.178-1.223
				c20.966-7.267,39.124-20.463,52.509-38.162c5.078-6.715,13.137-10.724,21.557-10.724h34.054
				c-7.22,6.765-12.782,14.504-16.808,23.341c-5.655,12.413-8.289,27.111-8.289,46.255c0,26.501,4.215,56.479,35.475,77.892
				c30.467,20.87,84.327,31.014,164.659,31.014c5.625,0,11.203-0.05,16.581-0.149c4.142-0.076,7.438-3.495,7.361-7.636
				c-0.076-4.142-3.532-7.443-7.637-7.361c-5.286,0.097-10.772,0.146-16.306,0.146c-77.206,0-128.294-9.286-156.182-28.389
				c-25.445-17.429-28.952-41.79-28.952-65.517c0-29.752,6.116-53.024,35.568-69.596h196.105c17.821,0,34.085-6.787,46.347-17.911
				C489.795,255.551,497,292.245,497,328.654c0,27.873-6.173,45.486-20.64,58.895c-9.146,8.477-13.779,20.788-12.397,32.93
				c1.052,9.234,3.629,17.142,8.356,25.638c0.272,0.49,0.246,0.977-0.079,1.445c-0.427,0.614-0.941,0.537-1.133,0.507
				c-19.677-2.987-38.794-11.195-53.829-23.111c-7.023-5.567-16.177-8.083-25.12-6.898c-8.968,1.187-18.705,2.151-28.941,2.866
				c-4.132,0.289-7.248,3.872-6.959,8.004c0.288,4.132,3.882,7.247,8.004,6.959c10.544-0.736,20.592-1.732,29.865-2.96
				c4.938-0.652,9.977,0.726,13.835,3.784c17.051,13.513,38.677,22.812,60.894,26.186c0.826,0.125,1.649,0.187,2.465,0.186
				c5.246,0,10.168-2.542,13.241-6.969c3.591-5.171,3.922-11.797,0.865-17.292c-3.77-6.776-5.732-12.77-6.56-20.042
				c-0.846-7.421,2.029-14.985,7.69-20.232c9.838-9.119,16.598-19.866,20.665-32.855c3.259-10.41,4.777-22.18,4.777-37.042
				C512,286.137,500.022,244.757,416.036,227.976z"/>
			<path d="M367.502,322.654c0-3.507,2.853-6.36,6.36-6.36s6.36,2.853,6.36,6.36c0,4.142,3.357,7.5,7.5,7.5s7.5-3.358,7.5-7.5
				c0-11.778-9.582-21.36-21.36-21.36c-11.778,0-21.36,9.582-21.36,21.36c0,4.142,3.357,7.5,7.5,7.5
				C364.144,330.154,367.502,326.796,367.502,322.654z"/>
			<path d="M91.6,167.218c-4.142,0-7.5,3.358-7.5,7.5s3.358,7.5,7.5,7.5h127.321c4.142,0,7.5-3.358,7.5-7.5s-3.358-7.5-7.5-7.5H91.6
				z"/>
			<path d="M228.607,322.654c0,4.142,3.358,7.5,7.5,7.5s7.5-3.358,7.5-7.5c0-3.507,2.853-6.36,6.36-6.36s6.36,2.853,6.36,6.36
				c0,4.142,3.357,7.5,7.5,7.5s7.5-3.358,7.5-7.5c0-11.778-9.582-21.36-21.36-21.36
				C238.189,301.294,228.607,310.876,228.607,322.654z"/>
			<path d="M353.74,133.255c0-4.142-3.357-7.5-7.5-7.5H91.6c-4.142,0-7.5,3.358-7.5,7.5c0,4.142,3.358,7.5,7.5,7.5h254.64
				C350.382,140.755,353.74,137.397,353.74,133.255z"/>
		</g>
	</g>
</g>
</svg>
