<?xml version="1.0" encoding="iso-8859-1"?>
<svg version="1.1" id="Capa_1" xmlns="http://www.w3.org/2000/svg" xmlns:xlink="http://www.w3.org/1999/xlink" x="0px" y="0px"
	 viewBox="0 0 512.001 512.001" style="enable-background:new 0 0 512.001 512.001;" xml:space="preserve">
<g>
	<g>
		<g>
			<path d="M290.372,157.164c0.432,0,0.871-0.038,1.311-0.115c4.08-0.72,6.803-4.609,6.084-8.689
				c-0.352-1.994,0.094-4.005,1.255-5.664c1.162-1.659,2.899-2.766,4.893-3.117c4.116-0.724,8.057,2.032,8.782,6.148
				c0.72,4.08,4.61,6.807,8.689,6.084c4.08-0.72,6.803-4.609,6.084-8.688c-2.163-12.262-13.903-20.474-26.16-18.316
				c-5.94,1.047-11.116,4.345-14.576,9.286c-3.46,4.94-4.788,10.933-3.741,16.872C283.635,154.604,286.8,157.164,290.372,157.164z"
				/>
			<path d="M221.447,184.72c5.155,4.164,11.536,6.387,18.054,6.387c1.657,0,3.323-0.144,4.98-0.436
				c8.171-1.441,15.319-6.351,19.609-13.47c2.138-3.547,0.995-8.157-2.553-10.295c-3.547-2.139-8.157-0.995-10.295,2.553
				c-2.052,3.404-5.466,5.751-9.366,6.439c-3.9,0.687-7.912-0.35-11.004-2.848c-3.222-2.602-7.944-2.102-10.547,1.121
				C217.723,177.394,218.225,182.117,221.447,184.72z"/>
			<path d="M188.629,175.221c4.08-0.719,6.803-4.609,6.084-8.688c-2.163-12.262-13.903-20.477-26.159-18.316
				c-12.261,2.162-20.479,13.896-18.317,26.159c0.642,3.639,3.806,6.2,7.377,6.2c0.432-0.001,0.871-0.038,1.311-0.115
				c4.08-0.719,6.803-4.609,6.084-8.688c-0.726-4.117,2.033-8.056,6.149-8.782c4.115-0.725,8.056,2.032,8.781,6.148
				C180.66,173.216,184.548,175.941,188.629,175.221z"/>
			<path d="M511.159,312.012l-25.32-143.597c-0.719-4.079-4.604-6.8-8.688-6.084c-4.079,0.719-6.803,4.609-6.084,8.689
				l25.32,143.597c0.578,3.279,0.733,6.535,0.519,9.717l-156.954-96.78L457.31,106.007c2.157,3.849,3.723,8.111,4.531,12.696
				l3.156,17.896c0.72,4.079,4.611,6.806,8.689,6.084c4.08-0.72,6.803-4.609,6.084-8.688l-3.156-17.896
				c-2.568-14.566-10.655-27.261-22.771-35.745c-12.116-8.484-26.812-11.74-41.377-9.173l-366.705,64.66
				c-19.563,3.449-34.919,16.839-41.807,34.053c-0.002,0.005-0.005,0.009-0.008,0.014c-0.186,0.381-0.328,0.772-0.445,1.166
				c-3.344,8.941-4.432,18.853-2.658,28.916l34.545,195.913c2.568,14.566,10.655,27.261,22.772,35.745
				c9.414,6.592,20.384,10.029,31.644,10.028c3.23,0,6.486-0.283,9.733-0.855l366.704-64.659
				c20.705-3.651,36.703-18.431,42.931-37.1c0.117-0.307,0.213-0.617,0.287-0.931C512.034,329.937,512.75,321.035,511.159,312.012z
				 M48.366,150.614l366.704-64.659c12.018-2.12,23.745,1.345,32.532,8.512l-124.962,129.42c-0.009,0.009-0.018,0.018-0.027,0.028
				l-47.406,49.097c-8.195,8.489-20.826,10.716-31.434,5.543l-61.342-29.924c-0.008-0.004-0.016-0.008-0.024-0.012L20.709,169.74
				C26.515,159.999,36.35,152.733,48.366,150.614z M463.637,361.387l-366.704,64.66c-13.154,2.319-25.959-2.044-34.939-10.633
				l18.696-23.638c2.57-3.249,2.019-7.966-1.229-10.535c-3.248-2.569-7.965-2.018-10.535,1.23l-15.927,20.137
				c-1.29-2.918-2.258-6.03-2.836-9.309L15.617,197.385c-0.808-4.585-0.795-9.126-0.084-13.48l151.853,74.077l-76.771,97.064
				c-2.57,3.249-2.019,7.966,1.23,10.535c1.377,1.089,3.018,1.618,4.647,1.618c2.214,0,4.407-0.977,5.887-2.848l78.806-99.637
				l56.009,27.323c5.919,2.887,12.243,4.29,18.509,4.29c11.164,0,22.142-4.454,30.293-12.895l43.287-44.832l163.546,100.845
				C487.328,350.589,476.787,359.069,463.637,361.387z"/>
		</g>
	</g>
</g>
</svg>
