<svg id="Layer_1" data-name="Layer 1" xmlns="http://www.w3.org/2000/svg" viewBox="0 0 568.01 571.53"><defs><style>.cls-1,.cls-3{fill:none;stroke:#fff;}.cls-1{stroke-linecap:round;stroke-linejoin:round;stroke-width:5px;}.cls-2{opacity:0.3;}.cls-3{stroke-miterlimit:10;}</style></defs><title>hero-pattern</title><line class="cls-1" x1="197.81" y1="113.49" x2="182.56" y2="99.19"/><line class="cls-1" x1="183.03" y1="113.97" x2="197.34" y2="98.71"/><line class="cls-1" x1="215.34" y1="332.93" x2="200.08" y2="318.62"/><line class="cls-1" x1="200.56" y1="333.4" x2="214.86" y2="318.15"/><line class="cls-1" x1="29.75" y1="455.53" x2="14.5" y2="441.22"/><line class="cls-1" x1="14.97" y1="456" x2="29.27" y2="440.75"/><line class="cls-1" x1="23.09" y1="92.61" x2="7.84" y2="78.31"/><line class="cls-1" x1="8.31" y1="93.09" x2="22.61" y2="77.84"/><line class="cls-1" x1="565.51" y1="113.12" x2="550.26" y2="98.81"/><line class="cls-1" x1="550.73" y1="113.59" x2="565.03" y2="98.34"/><line class="cls-1" x1="385.57" y1="190.92" x2="370.32" y2="176.62"/><line class="cls-1" x1="370.79" y1="191.4" x2="385.1" y2="176.15"/><line class="cls-1" x1="459.93" y1="360.73" x2="444.68" y2="346.43"/><line class="cls-1" x1="445.15" y1="361.21" x2="459.46" y2="345.96"/><line class="cls-1" x1="448.09" y1="499.06" x2="432.84" y2="484.76"/><line class="cls-1" x1="433.31" y1="499.54" x2="447.61" y2="484.29"/><polygon class="cls-1" points="311.15 136.39 300.65 118.22 290.18 136.4 279.7 154.57 300.68 154.55 321.65 154.54 311.15 136.39"/><polygon class="cls-1" points="276.44 358.39 265.93 340.23 255.46 358.4 244.99 376.57 265.96 376.56 286.94 376.55 276.44 358.39"/><polygon class="cls-1" points="396.78 426.56 386.28 408.4 375.81 426.57 365.33 444.75 386.3 444.73 407.28 444.72 396.78 426.56"/><polygon class="cls-1" points="466 287.13 471.42 266.86 451.16 272.31 430.9 277.75 445.74 292.57 460.58 307.4 466 287.13"/><polygon class="cls-1" points="121.07 51.84 126.49 31.57 106.24 37.02 85.97 42.46 100.82 57.28 115.66 72.11 121.07 51.84"/><polygon class="cls-1" points="106.71 489.75 112.13 469.48 91.87 474.93 71.61 480.37 86.45 495.19 101.29 510.02 106.71 489.75"/><polygon class="cls-1" points="487.25 74.48 505.41 63.98 487.24 53.51 469.06 43.03 469.08 64 469.09 84.98 487.25 74.48"/><polygon class="cls-1" points="106.24 284.03 124.41 273.53 106.23 263.06 88.06 252.58 88.08 273.56 88.09 294.53 106.24 284.03"/><path class="cls-1" d="M381,281.23a15.92,15.92,0,1,1-15.92-15.91A15.91,15.91,0,0,1,381,281.23Z" transform="translate(-34.37 -31.54)"/><path class="cls-1" d="M300.56,103.65a15.91,15.91,0,1,1-15.91-15.92A15.91,15.91,0,0,1,300.56,103.65Z" transform="translate(-34.37 -31.54)"/><path class="cls-1" d="M310.72,573.3a15.92,15.92,0,1,1-15.91-15.92A15.91,15.91,0,0,1,310.72,573.3Z" transform="translate(-34.37 -31.54)"/><path class="cls-1" d="M353.28,549.51a15.92,15.92,0,0,1,31.83,0" transform="translate(-34.37 -31.54)"/><path class="cls-1" d="M226.27,305.1a15.92,15.92,0,1,1,31.83,0" transform="translate(-34.37 -31.54)"/><path class="cls-1" d="M58.85,175.89a15.84,15.84,0,1,1,31.68,0" transform="translate(-34.37 -31.54)"/><path class="cls-1" d="M460,202a15.84,15.84,0,1,1,0-31.68" transform="translate(-34.37 -31.54)"/><path class="cls-1" d="M76.79,573.22a15.84,15.84,0,1,1,0-31.68" transform="translate(-34.37 -31.54)"/><path class="cls-1" d="M247.55,67.13a15.84,15.84,0,1,1,0-31.68" transform="translate(-34.37 -31.54)"/><path class="cls-1" d="M84.75,405.85a15.92,15.92,0,1,1-15.92-15.91A15.92,15.92,0,0,1,84.75,405.85Z" transform="translate(-34.37 -31.54)"/><path class="cls-1" d="M575.47,424a15.92,15.92,0,1,1-15.91-15.92A15.92,15.92,0,0,1,575.47,424Z" transform="translate(-34.37 -31.54)"/><rect class="cls-1" x="497.09" y="138.74" width="31.65" height="31.65"/><rect class="cls-1" x="139.19" y="154.57" width="31.65" height="31.65"/><rect class="cls-1" x="137.61" y="356.66" width="31.65" height="31.65"/><rect class="cls-1" x="497.09" y="510.02" width="31.65" height="31.65"/><rect class="cls-1" x="365.78" y="3.92" width="31.65" height="31.65"/><path class="cls-1" d="M354.66,357.32c-6.91,0-5.72-12.26-14.54-12.26" transform="translate(-34.37 -31.54)"/><path class="cls-1" d="M383.73,357.32c-6.91,0-5.72-12.26-14.53-12.26" transform="translate(-34.37 -31.54)"/><path class="cls-1" d="M354.66,357.32c6.91,0,5.72-12.26,14.54-12.26" transform="translate(-34.37 -31.54)"/><path class="cls-1" d="M398.27,345.06" transform="translate(-34.37 -31.54)"/><path class="cls-1" d="M383.73,357.32c6.91,0,5.72-12.26,14.54-12.26" transform="translate(-34.37 -31.54)"/><path class="cls-1" d="M437.48,585.55c-6.91,0-5.72-12.25-14.54-12.25" transform="translate(-34.37 -31.54)"/><path class="cls-1" d="M466.55,585.55c-6.91,0-5.72-12.25-14.54-12.25" transform="translate(-34.37 -31.54)"/><path class="cls-1" d="M437.48,585.55c6.91,0,5.72-12.25,14.53-12.25" transform="translate(-34.37 -31.54)"/><path class="cls-1" d="M481.08,573.3" transform="translate(-34.37 -31.54)"/><path class="cls-1" d="M466.55,585.55c6.91,0,5.72-12.25,14.53-12.25" transform="translate(-34.37 -31.54)"/><path class="cls-1" d="M477.12,256.51c-6.91,0-5.72-12.25-14.54-12.25" transform="translate(-34.37 -31.54)"/><path class="cls-1" d="M506.19,256.51c-6.91,0-5.72-12.25-14.53-12.25" transform="translate(-34.37 -31.54)"/><path class="cls-1" d="M477.12,256.51c6.91,0,5.72-12.25,14.54-12.25" transform="translate(-34.37 -31.54)"/><path class="cls-1" d="M520.73,244.26" transform="translate(-34.37 -31.54)"/><path class="cls-1" d="M506.19,256.51c6.91,0,5.72-12.25,14.54-12.25" transform="translate(-34.37 -31.54)"/><path class="cls-1" d="M72.84,241.7c-6.91,0-5.72-12.25-14.54-12.25" transform="translate(-34.37 -31.54)"/><path class="cls-1" d="M101.91,241.7c-6.91,0-5.72-12.25-14.54-12.25" transform="translate(-34.37 -31.54)"/><path class="cls-1" d="M72.84,241.7c6.91,0,5.72-12.25,14.53-12.25" transform="translate(-34.37 -31.54)"/><path class="cls-1" d="M116.45,229.45" transform="translate(-34.37 -31.54)"/><path class="cls-1" d="M101.91,241.7c6.91,0,5.72-12.25,14.54-12.25" transform="translate(-34.37 -31.54)"/><path class="cls-1" d="M357.06,77.65c0,6.91-12.25,5.72-12.25,14.53" transform="translate(-34.37 -31.54)"/><path class="cls-1" d="M357.06,48.58c0,6.91-12.25,5.71-12.25,14.53" transform="translate(-34.37 -31.54)"/><path class="cls-1" d="M357.06,77.65c0-6.91-12.25-5.72-12.25-14.54" transform="translate(-34.37 -31.54)"/><path class="cls-1" d="M344.81,34" transform="translate(-34.37 -31.54)"/><path class="cls-1" d="M357.06,48.58c0-6.91-12.25-5.72-12.25-14.54" transform="translate(-34.37 -31.54)"/><path class="cls-1" d="M267.92,229.72c0,6.91-12.25,5.72-12.25,14.54" transform="translate(-34.37 -31.54)"/><path class="cls-1" d="M267.92,200.65c0,6.91-12.25,5.72-12.25,14.53" transform="translate(-34.37 -31.54)"/><path class="cls-1" d="M267.92,229.72c0-6.91-12.25-5.72-12.25-14.54" transform="translate(-34.37 -31.54)"/><path class="cls-1" d="M255.67,186.11" transform="translate(-34.37 -31.54)"/><path class="cls-1" d="M267.92,200.65c0-6.91-12.25-5.72-12.25-14.54" transform="translate(-34.37 -31.54)"/><path class="cls-1" d="M509.56,472.65c0,6.91-12.26,5.72-12.26,14.54" transform="translate(-34.37 -31.54)"/><path class="cls-1" d="M509.56,443.58c0,6.91-12.26,5.71-12.26,14.53" transform="translate(-34.37 -31.54)"/><path class="cls-1" d="M509.56,472.65c0-6.91-12.26-5.72-12.26-14.54" transform="translate(-34.37 -31.54)"/><path class="cls-1" d="M497.3,429" transform="translate(-34.37 -31.54)"/><path class="cls-1" d="M509.56,443.58c0-6.91-12.26-5.72-12.26-14.54" transform="translate(-34.37 -31.54)"/><path class="cls-1" d="M209.75,495.56c0,6.91-12.25,5.72-12.25,14.53" transform="translate(-34.37 -31.54)"/><path class="cls-1" d="M209.75,466.49c0,6.91-12.25,5.71-12.25,14.53" transform="translate(-34.37 -31.54)"/><path class="cls-1" d="M209.75,495.56c0-6.91-12.25-5.72-12.25-14.54" transform="translate(-34.37 -31.54)"/><path class="cls-1" d="M197.5,452" transform="translate(-34.37 -31.54)"/><path class="cls-1" d="M209.75,466.49c0-6.91-12.25-5.72-12.25-14.54" transform="translate(-34.37 -31.54)"/><line class="cls-1" x1="355.13" y1="358.4" x2="391" y2="358.4"/><line class="cls-1" x1="2.5" y1="254.75" x2="38.37" y2="254.75"/><line class="cls-1" x1="357.81" y1="88.02" x2="393.68" y2="88.02"/><line class="cls-1" x1="499.2" y1="7.07" x2="535.07" y2="7.07"/><line class="cls-1" x1="145.5" y1="541.68" x2="181.37" y2="541.68"/><line class="cls-1" x1="237.6" y1="472.39" x2="262.96" y2="447.02"/><line class="cls-1" x1="27.64" y1="32.43" x2="53.01" y2="7.07"/><line class="cls-1" x1="517.13" y1="292.44" x2="542.49" y2="267.08"/><g class="cls-2"><polygon class="cls-3" points="333.97 149.75 323.47 131.58 313 149.75 302.52 167.93 323.49 167.91 344.47 167.9 333.97 149.75"/><polygon class="cls-3" points="299.25 371.75 288.75 353.58 278.28 371.76 267.8 389.93 288.77 389.92 309.75 389.9 299.25 371.75"/><polygon class="cls-3" points="419.6 439.92 409.1 421.76 398.63 439.93 388.15 458.11 409.12 458.09 430.1 458.08 419.6 439.92"/><polygon class="cls-3" points="488.81 300.49 494.23 280.22 473.98 285.67 453.72 291.11 468.56 305.93 483.4 320.76 488.81 300.49"/><polygon class="cls-3" points="143.89 65.2 149.31 44.93 129.05 50.38 108.79 55.82 123.63 70.64 138.47 85.47 143.89 65.2"/><polygon class="cls-3" points="129.52 503.11 134.94 482.84 114.69 488.29 94.43 493.73 109.27 508.55 124.11 523.38 129.52 503.11"/><polygon class="cls-3" points="510.07 87.84 528.23 77.34 510.06 66.87 491.88 56.39 491.9 77.36 491.91 98.34 510.07 87.84"/><polygon class="cls-3" points="129.06 297.39 147.22 286.89 129.05 276.42 110.87 265.94 110.89 286.92 110.9 307.89 129.06 297.39"/><path class="cls-3" d="M403.78,294.59a15.91,15.91,0,1,1-15.91-15.92A15.91,15.91,0,0,1,403.78,294.59Z" transform="translate(-34.37 -31.54)"/><path class="cls-3" d="M323.38,117a15.92,15.92,0,1,1-15.91-15.91A15.92,15.92,0,0,1,323.38,117Z" transform="translate(-34.37 -31.54)"/><path class="cls-3" d="M333.54,586.66a15.92,15.92,0,1,1-15.92-15.92A15.91,15.91,0,0,1,333.54,586.66Z" transform="translate(-34.37 -31.54)"/><path class="cls-3" d="M376.1,562.87a15.91,15.91,0,0,1,31.82,0" transform="translate(-34.37 -31.54)"/><path class="cls-3" d="M249.08,318.46a15.92,15.92,0,1,1,31.83,0" transform="translate(-34.37 -31.54)"/><path class="cls-3" d="M81.67,189.25a15.84,15.84,0,1,1,31.68,0" transform="translate(-34.37 -31.54)"/><path class="cls-3" d="M482.79,215.31a15.84,15.84,0,1,1,0-31.68" transform="translate(-34.37 -31.54)"/><path class="cls-3" d="M99.61,586.58a15.84,15.84,0,1,1,0-31.68" transform="translate(-34.37 -31.54)"/><path class="cls-3" d="M270.37,80.49a15.84,15.84,0,1,1,0-31.68" transform="translate(-34.37 -31.54)"/><path class="cls-3" d="M107.56,419.21A15.91,15.91,0,1,1,91.65,403.3,15.91,15.91,0,0,1,107.56,419.21Z" transform="translate(-34.37 -31.54)"/><path class="cls-3" d="M598.29,437.38a15.92,15.92,0,1,1-15.92-15.91A15.92,15.92,0,0,1,598.29,437.38Z" transform="translate(-34.37 -31.54)"/><rect class="cls-3" x="519.9" y="152.1" width="31.65" height="31.65"/><rect class="cls-3" x="162.01" y="167.93" width="31.65" height="31.65"/><rect class="cls-3" x="160.42" y="370.02" width="31.65" height="31.65"/><rect class="cls-3" x="519.9" y="523.38" width="31.65" height="31.65"/><rect class="cls-3" x="388.59" y="17.28" width="31.65" height="31.65"/><path class="cls-3" d="M377.47,370.68c-6.91,0-5.71-12.26-14.53-12.26" transform="translate(-34.37 -31.54)"/><path class="cls-3" d="M406.55,370.68c-6.91,0-5.72-12.26-14.54-12.26" transform="translate(-34.37 -31.54)"/><path class="cls-3" d="M377.47,370.68c6.91,0,5.72-12.26,14.54-12.26" transform="translate(-34.37 -31.54)"/><path class="cls-3" d="M421.08,358.42" transform="translate(-34.37 -31.54)"/><path class="cls-3" d="M406.55,370.68c6.9,0,5.72-12.26,14.53-12.26" transform="translate(-34.37 -31.54)"/><path class="cls-3" d="M460.29,598.91c-6.91,0-5.72-12.25-14.53-12.25" transform="translate(-34.37 -31.54)"/><path class="cls-3" d="M489.37,598.91c-6.92,0-5.72-12.25-14.54-12.25" transform="translate(-34.37 -31.54)"/><path class="cls-3" d="M460.29,598.91c6.91,0,5.72-12.25,14.54-12.25" transform="translate(-34.37 -31.54)"/><path class="cls-3" d="M503.9,586.66" transform="translate(-34.37 -31.54)"/><path class="cls-3" d="M489.37,598.91c6.9,0,5.71-12.25,14.53-12.25" transform="translate(-34.37 -31.54)"/><path class="cls-3" d="M499.94,269.87c-6.91,0-5.72-12.25-14.54-12.25" transform="translate(-34.37 -31.54)"/><path class="cls-3" d="M529,269.87c-6.91,0-5.72-12.25-14.54-12.25" transform="translate(-34.37 -31.54)"/><path class="cls-3" d="M499.94,269.87c6.91,0,5.72-12.25,14.53-12.25" transform="translate(-34.37 -31.54)"/><path class="cls-3" d="M543.54,257.62" transform="translate(-34.37 -31.54)"/><path class="cls-3" d="M529,269.87c6.91,0,5.72-12.25,14.53-12.25" transform="translate(-34.37 -31.54)"/><path class="cls-3" d="M95.65,255.06c-6.91,0-5.71-12.25-14.53-12.25" transform="translate(-34.37 -31.54)"/><path class="cls-3" d="M124.73,255.06c-6.91,0-5.72-12.25-14.54-12.25" transform="translate(-34.37 -31.54)"/><path class="cls-3" d="M95.65,255.06c6.91,0,5.72-12.25,14.54-12.25" transform="translate(-34.37 -31.54)"/><path class="cls-3" d="M139.26,242.81" transform="translate(-34.37 -31.54)"/><path class="cls-3" d="M124.73,255.06c6.91,0,5.71-12.25,14.53-12.25" transform="translate(-34.37 -31.54)"/><path class="cls-3" d="M379.88,91c0,6.91-12.25,5.72-12.25,14.53" transform="translate(-34.37 -31.54)"/><path class="cls-3" d="M379.88,61.94c0,6.91-12.25,5.71-12.25,14.53" transform="translate(-34.37 -31.54)"/><path class="cls-3" d="M379.88,91c0-6.91-12.25-5.72-12.25-14.54" transform="translate(-34.37 -31.54)"/><path class="cls-3" d="M367.63,47.4" transform="translate(-34.37 -31.54)"/><path class="cls-3" d="M379.88,61.94c0-6.91-12.25-5.72-12.25-14.54" transform="translate(-34.37 -31.54)"/><path class="cls-3" d="M290.74,243.08c0,6.91-12.25,5.72-12.25,14.54" transform="translate(-34.37 -31.54)"/><path class="cls-3" d="M290.74,214c0,6.91-12.25,5.72-12.25,14.53" transform="translate(-34.37 -31.54)"/><path class="cls-3" d="M290.74,243.08c0-6.91-12.25-5.72-12.25-14.54" transform="translate(-34.37 -31.54)"/><path class="cls-3" d="M278.49,199.47" transform="translate(-34.37 -31.54)"/><path class="cls-3" d="M290.74,214c0-6.91-12.25-5.72-12.25-14.54" transform="translate(-34.37 -31.54)"/><path class="cls-3" d="M532.37,486c0,6.91-12.25,5.72-12.25,14.53" transform="translate(-34.37 -31.54)"/><path class="cls-3" d="M532.37,456.94c0,6.91-12.25,5.71-12.25,14.53" transform="translate(-34.37 -31.54)"/><path class="cls-3" d="M532.37,486c0-6.91-12.25-5.72-12.25-14.54" transform="translate(-34.37 -31.54)"/><path class="cls-3" d="M520.12,442.4" transform="translate(-34.37 -31.54)"/><path class="cls-3" d="M532.37,456.94c0-6.91-12.25-5.72-12.25-14.54" transform="translate(-34.37 -31.54)"/><path class="cls-3" d="M232.57,508.92c0,6.91-12.26,5.72-12.26,14.53" transform="translate(-34.37 -31.54)"/><path class="cls-3" d="M232.57,479.85c0,6.91-12.26,5.71-12.26,14.53" transform="translate(-34.37 -31.54)"/><path class="cls-3" d="M232.57,508.92c0-6.91-12.26-5.72-12.26-14.54" transform="translate(-34.37 -31.54)"/><path class="cls-3" d="M220.31,465.31" transform="translate(-34.37 -31.54)"/><path class="cls-3" d="M232.57,479.85c0-6.91-12.26-5.72-12.26-14.54" transform="translate(-34.37 -31.54)"/><line class="cls-3" x1="377.94" y1="371.76" x2="413.81" y2="371.76"/><line class="cls-3" x1="25.32" y1="268.11" x2="61.19" y2="268.11"/><line class="cls-3" x1="380.62" y1="101.38" x2="416.49" y2="101.38"/><line class="cls-3" x1="522.01" y1="20.43" x2="557.88" y2="20.43"/><line class="cls-3" x1="168.31" y1="555.04" x2="204.18" y2="555.04"/><line class="cls-3" x1="260.42" y1="485.75" x2="285.78" y2="460.38"/><line class="cls-3" x1="50.46" y1="45.79" x2="75.82" y2="20.43"/><line class="cls-3" x1="539.95" y1="305.8" x2="565.31" y2="280.44"/></g><path class="cls-1" d="M363.45,474.86a6.27,6.27,0,1,1,2-8.64A6.27,6.27,0,0,1,363.45,474.86Z" transform="translate(-34.37 -31.54)"/><path class="cls-1" d="M314.06,302.45a6.27,6.27,0,1,1,2-8.64A6.27,6.27,0,0,1,314.06,302.45Z" transform="translate(-34.37 -31.54)"/><path class="cls-1" d="M88.17,355.47a6.27,6.27,0,1,1,2-8.64A6.27,6.27,0,0,1,88.17,355.47Z" transform="translate(-34.37 -31.54)"/><path class="cls-1" d="M152.39,158.18a6.26,6.26,0,1,1,2-8.64A6.25,6.25,0,0,1,152.39,158.18Z" transform="translate(-34.37 -31.54)"/><path class="cls-1" d="M497.17,155.07a6.27,6.27,0,1,1,2-8.64A6.27,6.27,0,0,1,497.17,155.07Z" transform="translate(-34.37 -31.54)"/><path class="cls-1" d="M585.71,378.38a6.27,6.27,0,1,1,2-8.65A6.27,6.27,0,0,1,585.71,378.38Z" transform="translate(-34.37 -31.54)"/></svg>