<?xml version="1.0" encoding="iso-8859-1"?>
<svg version="1.1" id="Capa_1" xmlns="http://www.w3.org/2000/svg" xmlns:xlink="http://www.w3.org/1999/xlink" x="0px" y="0px"
	 viewBox="0 0 511.998 511.998" style="enable-background:new 0 0 511.998 511.998;" xml:space="preserve">
<g>
	<g>
		<g>
			<path d="M497.345,249.919l-5.145-6.801l8.299-9.138c14.234-15.674,15.381-39.37,2.727-56.344
				c-6.916-9.279-17.954-14.817-29.526-14.817h-62.656c1.961-10.172,3.182-24.079,3.709-42.096c0.121-4.141-3.138-7.595-7.278-7.716
				c-4.129-0.127-7.595,3.137-7.716,7.277c-0.671,22.956-2.503,38.977-5.444,47.619c-0.78,2.29-0.407,4.816,1.001,6.783
				s3.68,3.134,6.099,3.134h72.287c6.858,0,13.4,3.283,17.5,8.781c8.375,11.236,7.616,26.919-1.805,37.294l-8.3,9.138
				c-4.788,5.273-5.174,13.246-0.917,18.958l5.14,6.894c8.375,11.236,7.616,26.92-1.805,37.295l-8.298,9.137
				c-4.789,5.272-5.176,13.246-0.918,18.958l5.14,6.895c8.375,11.236,7.616,26.921-1.805,37.295l-8.298,9.138
				c-4.789,5.273-5.176,13.246-0.918,18.959l6.86,9.203c7.703,10.334,7.703,24.769,0.001,35.102l-1.723,2.31
				c-4.099,5.499-10.641,8.781-17.499,8.781h-225.92V177.818h26.658c44.645,0,60.553-41.476,60.553-80.291V79.328
				c0-22.804,18.553-41.356,41.356-41.356c22.804,0,41.356,18.552,41.356,41.356v5.905c0,4.142,3.357,7.5,7.5,7.5
				c4.142,0,7.5-3.358,7.5-7.5v-5.905c0-31.076-25.281-56.357-56.357-56.357c-31.076,0-56.357,25.281-56.357,56.357v18.2
				c0,6.888-0.737,24.561-7.569,39.85c-7.65,17.119-20.074,25.44-37.982,25.44h-27.289c-2.715-12.599-13.938-22.07-27.336-22.07
				H42.139c-11.715,0-22.994,4.934-30.946,13.537c-7.951,8.602-11.985,20.235-11.065,31.914l16.966,215.429
				c0.325,4.129,3.935,7.208,8.065,6.888c4.129-0.325,7.213-3.937,6.888-8.066L15.082,185.02c-0.601-7.632,1.93-14.932,7.127-20.554
				c5.196-5.622,12.274-8.717,19.93-8.717h160.03c7.149,0,12.967,5.816,12.967,12.967v292.347c0,7.149-5.816,12.967-12.967,12.967
				H64.509c-14.953,0-27.586-11.677-28.761-26.583l-0.964-12.252c-0.324-4.129-3.934-7.211-8.064-6.889
				c-4.13,0.325-7.214,3.936-6.889,8.065l0.964,12.252c1.784,22.658,20.985,40.406,43.714,40.406h137.66
				c13.399,0,24.62-9.471,27.336-22.07h226.551c11.573,0,22.61-5.539,29.526-14.817l1.723-2.31
				c11.638-15.613,11.638-37.42-0.001-53.034l-6.865-9.11l8.298-9.138c14.234-15.673,15.382-39.369,2.728-56.345l-5.145-6.802
				l8.298-9.138C508.852,290.591,510,266.895,497.345,249.919z"/>
			<path d="M177.251,415.33c0-17.541-14.271-31.811-31.812-31.811c-17.54,0-31.811,14.271-31.811,31.811
				s14.271,31.811,31.811,31.811C162.981,447.141,177.251,432.87,177.251,415.33z M128.63,415.33c0-9.27,7.54-16.81,16.81-16.81
				c9.269,0,16.811,7.541,16.811,16.81s-7.541,16.81-16.811,16.81C136.17,432.14,128.63,424.599,128.63,415.33z"/>
		</g>
	</g>
</g>
</svg>
