<?xml version="1.0" encoding="iso-8859-1"?>
<svg version="1.1" id="Capa_1" xmlns="http://www.w3.org/2000/svg" xmlns:xlink="http://www.w3.org/1999/xlink" x="0px" y="0px"
	 viewBox="0 0 512.001 512.001" style="enable-background:new 0 0 512.001 512.001;" xml:space="preserve">
<g>
	<g>
		<g>
			<path d="M154.097,197.546c0.432,0,0.871-0.037,1.311-0.115c4.08-0.719,6.803-4.609,6.084-8.688l-1.874-10.63
				c-0.719-4.079-4.607-6.803-8.689-6.083c-4.08,0.719-6.803,4.609-6.084,8.688l1.875,10.63
				C147.361,194.987,150.526,197.546,154.097,197.546z"/>
			<path d="M282.179,174.962c0.432,0,0.871-0.037,1.311-0.115c4.079-0.719,6.803-4.609,6.084-8.689l-1.875-10.63
				c-0.72-4.079-4.604-6.806-8.688-6.083c-4.08,0.719-6.803,4.609-6.084,8.688l1.875,10.63
				C275.444,172.403,278.608,174.962,282.179,174.962z"/>
			<path d="M215.643,194.762c1.745,0,3.5-0.151,5.244-0.46c8.606-1.516,16.132-6.686,20.65-14.185
				c2.138-3.548,0.995-8.156-2.553-10.294c-3.547-2.138-8.157-0.994-10.295,2.554c-2.279,3.782-6.072,6.39-10.406,7.153
				c-4.335,0.762-8.79-0.388-12.226-3.163c-3.222-2.602-7.945-2.1-10.547,1.123c-2.603,3.223-2.1,7.944,1.123,10.547
				C202.062,192.421,208.782,194.762,215.643,194.762z"/>
			<path d="M476.629,367.654l-4.489-25.459c-1.505-8.532-6.242-15.969-13.34-20.939c-7.098-4.969-15.708-6.88-24.238-5.373
				l-3.343,0.589l-20.027-20.584c-22.047-22.658-36.603-51.094-42.093-82.231l-11.348-64.36
				c-9.24-52.402-55.734-89.061-107.424-87.533c0.733-5.52,0.638-11.148-0.334-16.666c-5.225-29.631-33.584-49.487-63.216-44.263
				c-29.631,5.226-49.487,33.583-44.263,63.216c0.973,5.517,2.809,10.839,5.386,15.775C98.803,96.073,67.651,146.418,76.89,198.822
				l4.533,25.708c0.719,4.079,4.611,6.809,8.688,6.083c4.08-0.719,6.803-4.609,6.084-8.688l-4.533-25.708
				c-8.711-49.402,24.394-96.683,73.797-105.394l72.123-12.717c49.404-8.709,96.683,24.394,105.394,73.798l11.348,64.36
				c6.015,34.11,21.961,65.262,46.115,90.086l12.914,13.272l-330.461,58.27l7.596-16.889
				c14.207-31.589,18.537-66.315,12.523-100.425l-0.999-5.664c-0.719-4.08-4.606-6.806-8.688-6.084
				c-4.079,0.719-6.803,4.608-6.084,8.688l0.999,5.665c5.49,31.135,1.538,62.834-11.43,91.668l-11.78,26.191l-3.343,0.589
				c-8.533,1.504-15.969,6.241-20.939,13.339c-4.97,7.098-6.878,15.706-5.374,24.239l4.489,25.459
				c1.505,8.532,6.242,15.969,13.34,20.939c5.515,3.861,11.941,5.875,18.536,5.875c1.893,0,3.8-0.166,5.703-0.502l59.026-10.408
				c0.124,2.117,0.367,4.23,0.737,6.331c4.663,26.44,27.743,45.099,53.714,45.098c3.134,0,6.311-0.272,9.502-0.835
				c29.631-5.226,49.487-33.583,44.263-63.216c-0.371-2.101-0.865-4.169-1.473-6.201l132.617-23.383
				c4.079-0.719,6.803-4.608,6.084-8.689c-0.719-4.079-4.605-6.806-8.688-6.083l-141.61,24.97c-0.035,0.006-0.069,0.012-0.104,0.018
				l-88.559,15.615c-0.032,0.006-0.064,0.011-0.096,0.017l-68.018,11.993c-4.587,0.809-9.214-0.216-13.03-2.889
				c-3.815-2.672-6.362-6.669-7.171-11.257l-4.489-25.459c-0.809-4.587,0.217-9.214,2.889-13.029
				c2.671-3.816,6.669-6.362,11.256-7.172l365.704-64.484c0.013-0.002,0.026-0.004,0.038-0.007l7.133-1.258
				c4.585-0.807,9.214,0.218,13.03,2.889c3.815,2.672,6.362,6.67,7.171,11.257l4.489,25.459c0.809,4.587-0.217,9.214-2.889,13.029
				c-2.671,3.816-6.669,6.362-11.256,7.172l-41.018,7.232c-4.079,0.719-6.803,4.608-6.084,8.689c0.72,4.079,4.608,6.81,8.689,6.083
				l41.018-7.232c8.533-1.504,15.969-6.241,20.939-13.339C476.225,384.795,478.133,376.187,476.629,367.654z M234.813,63.363
				l-71.795,12.659c-2.847-4.412-4.817-9.373-5.734-14.577c-3.789-21.485,10.61-42.049,32.095-45.838
				c21.487-3.79,42.049,10.61,45.837,32.097C236.134,52.907,235.98,58.243,234.813,63.363z M228.287,444.381
				c0.698,2.005,1.25,4.066,1.621,6.175c3.789,21.485-10.61,42.049-32.095,45.838c-21.486,3.788-42.049-10.61-45.837-32.097
				c-0.372-2.109-0.558-4.233-0.588-6.357L228.287,444.381z"/>
		</g>
	</g>
</g>
</svg>
