<?xml version="1.0" encoding="iso-8859-1"?>
<svg version="1.1" id="Capa_1" xmlns="http://www.w3.org/2000/svg" xmlns:xlink="http://www.w3.org/1999/xlink" x="0px" y="0px"
	 viewBox="0 0 512 512" style="enable-background:new 0 0 512 512;" xml:space="preserve">
<g>
	<g>
		<g>
			<path d="M223.465,378.681h14.428l-10.202,10.202c-2.929,2.93-2.929,7.678,0,10.607c1.464,1.464,3.384,2.196,5.303,2.196
				c1.92,0,3.839-0.732,5.303-2.196l10.203-10.203v14.428c0,4.143,3.358,7.5,7.5,7.5c4.142,0,7.5-3.357,7.5-7.5v-14.428
				l10.203,10.203c1.464,1.464,3.384,2.196,5.303,2.196s3.839-0.732,5.303-2.196c2.929-2.93,2.929-7.678,0-10.607l-10.202-10.202
				h14.428c4.142,0,7.5-3.357,7.5-7.5s-3.358-7.5-7.5-7.5h-14.428l10.202-10.202c2.929-2.93,2.929-7.678,0-10.607
				c-2.929-2.928-7.678-2.928-10.607,0L263.5,353.074v-14.428c0-4.143-3.358-7.5-7.5-7.5c-4.142,0-7.5,3.357-7.5,7.5v14.428
				l-10.203-10.203c-2.929-2.928-7.678-2.928-10.606,0c-2.929,2.93-2.929,7.678,0,10.607l10.202,10.202h-14.428
				c-4.142,0-7.5,3.357-7.5,7.5S219.323,378.681,223.465,378.681z"/>
			<path d="M144.753,389.287v14.428c0,4.143,3.358,7.5,7.5,7.5c4.142,0,7.5-3.357,7.5-7.5v-14.428l10.203,10.203
				c1.464,1.464,3.384,2.196,5.303,2.196c1.919,0,3.839-0.732,5.303-2.196c2.929-2.93,2.929-7.678,0-10.607l-10.202-10.202h14.428
				c4.142,0,7.5-3.357,7.5-7.5s-3.358-7.5-7.5-7.5H170.36l10.202-10.202c2.929-2.93,2.929-7.678,0-10.607
				c-2.929-2.928-7.678-2.928-10.606,0l-10.203,10.203v-14.428c0-4.143-3.358-7.5-7.5-7.5c-4.142,0-7.5,3.357-7.5,7.5v14.428
				l-10.203-10.203c-2.929-2.928-7.678-2.928-10.607,0c-2.929,2.93-2.929,7.678,0,10.607l10.202,10.202h-14.428
				c-4.142,0-7.5,3.357-7.5,7.5c0.001,4.142,3.359,7.5,7.501,7.5h14.428l-10.202,10.202c-2.929,2.93-2.929,7.678,0,10.607
				c1.464,1.464,3.384,2.196,5.303,2.196s3.839-0.732,5.303-2.196L144.753,389.287z"/>
			<path d="M327.212,378.681h14.428l-10.202,10.202c-2.929,2.93-2.929,7.678,0,10.607c1.464,1.464,3.384,2.196,5.303,2.196
				s3.839-0.732,5.303-2.196l10.203-10.203v14.428c0,4.143,3.358,7.5,7.5,7.5c4.142,0,7.5-3.357,7.5-7.5v-14.428l10.203,10.203
				c1.464,1.464,3.384,2.196,5.303,2.196s3.839-0.732,5.303-2.196c2.929-2.93,2.929-7.678,0-10.607l-10.202-10.202h14.428
				c4.142,0,7.5-3.357,7.5-7.5s-3.358-7.5-7.5-7.5h-14.428l10.202-10.202c2.929-2.93,2.929-7.678,0-10.607
				c-2.929-2.928-7.678-2.928-10.606,0l-10.203,10.203v-14.428c0-4.143-3.358-7.5-7.5-7.5c-4.142,0-7.5,3.357-7.5,7.5v14.428
				l-10.203-10.203c-2.929-2.928-7.678-2.928-10.606,0c-2.929,2.93-2.929,7.678,0,10.607l10.202,10.202h-14.428
				c-4.142,0-7.5,3.357-7.5,7.5C319.712,375.323,323.07,378.681,327.212,378.681z"/>
			<path d="M277.658,235.268c-3.122-2.724-7.861-2.397-10.581,0.726c-2.797,3.209-6.834,5.049-11.076,5.049
				c-4.242,0-8.279-1.84-11.076-5.049c-2.722-3.124-7.459-3.448-10.581-0.726c-3.123,2.721-3.448,7.459-0.726,10.581
				c5.646,6.479,13.805,10.193,22.384,10.193c8.579,0,16.737-3.715,22.384-10.193C281.105,242.727,280.78,237.988,277.658,235.268z"
				/>
			<path d="M192.544,222.42c-4.142,0-7.5,3.357-7.5,7.5v10.533c0,4.143,3.358,7.5,7.5,7.5c4.142,0,7.5-3.357,7.5-7.5V229.92
				C200.044,225.777,196.686,222.42,192.544,222.42z"/>
			<path d="M430.387,203.014c-11.992-2.532-24.05-4.787-36.153-6.795v-57.985c0-14.301-2.186-28.407-6.499-41.928
				c-1.259-3.945-5.478-6.122-9.425-4.866c-3.946,1.259-6.125,5.479-4.866,9.425c3.842,12.045,5.79,24.617,5.79,37.369v55.632
				c-14.795-2.182-29.651-3.975-44.544-5.37v-50.263c0-43.39-35.3-78.69-78.689-78.69c-43.389,0-78.689,35.3-78.689,78.69v50.263
				c-14.893,1.395-29.75,3.188-44.544,5.37v-55.632C132.767,70.283,188.049,15,256,15c41.53,0,80.024,20.787,102.973,55.604
				c2.28,3.459,6.932,4.415,10.39,2.135c3.458-2.279,4.414-6.931,2.135-10.389C345.765,23.309,302.588,0,256,0
				c-76.222,0-138.233,62.012-138.233,138.234v57.985c-12.104,2.008-24.162,4.262-36.153,6.795
				c-15.5,3.272-26.75,17.145-26.75,32.987v224.8c0,15.841,11.25,29.715,26.751,32.988C138.84,505.873,197.512,512,256,512
				c58.488,0,117.161-6.127,174.387-18.211c15.499-3.273,26.749-17.147,26.749-32.988v-224.8
				C457.137,220.159,445.887,206.286,430.387,203.014z M192.311,138.234c0-35.118,28.571-63.69,63.689-63.69
				s63.689,28.571,63.689,63.69v48.992c-21.202-1.607-42.457-2.425-63.689-2.425s-42.487,0.818-63.689,2.425V138.234z
				 M442.137,460.801c0,8.794-6.245,16.495-14.849,18.313C371.078,490.982,313.449,497,256,497
				c-57.449,0-115.079-6.018-171.288-17.887c-8.604-1.817-14.849-9.519-14.849-18.313v-8.263h32.348c4.142,0,7.5-3.357,7.5-7.5
				s-3.358-7.5-7.5-7.5H69.863V304.823h372.273v132.715h-304.43c-4.142,0-7.5,3.357-7.5,7.5s3.358,7.5,7.5,7.5h304.431V460.801z
				 M442.137,289.823H69.863v-53.822c0-8.794,6.245-16.495,14.85-18.312C140.922,205.82,198.551,199.802,256,199.802
				c57.449,0,115.079,6.018,171.288,17.888c8.604,1.816,14.849,9.518,14.849,18.312V289.823z"/>
			<path d="M319.457,222.42c-4.142,0-7.5,3.357-7.5,7.5v10.533c0,4.143,3.358,7.5,7.5,7.5c4.142,0,7.5-3.357,7.5-7.5V229.92
				C326.957,225.777,323.599,222.42,319.457,222.42z"/>
		</g>
	</g>
</g>
</svg>
