<?xml version="1.0" encoding="utf-8"?>
<svg version="1.1" id="Capa_1" xmlns="http://www.w3.org/2000/svg" xmlns:xlink="http://www.w3.org/1999/xlink" x="0px" y="0px"
	 viewBox="0 0 512 512" style="enable-background:new 0 0 512 512;" xml:space="preserve">
<g>
	<g>
		<path d="M505.3,438.6c-2.1-3.6-6.7-4.8-10.3-2.7c-3.6,2.1-4.8,6.7-2.7,10.3c7.8,13.2,5.6,30.1-5.3,40.9
			c-6.4,6.4-14.9,9.9-23.9,9.9s-17.5-3.5-23.9-9.9l-25.3-25.3l47.7-47.7l8.9,8.9c1.5,1.5,3.4,2.2,5.3,2.2s3.8-0.7,5.3-2.2
			c2.9-2.9,2.9-7.7,0-10.6L377.1,308.1c18.6-30.7,29.3-66.6,29.3-105C406.3,91.1,315.2,0,203.2,0S0,91.2,0,203.2
			c0,49,17.7,96.2,49.7,133.2c2.7,3.1,7.5,3.5,10.6,0.7c3.1-2.7,3.5-7.5,0.7-10.6c-29.7-34.2-46-78-46-123.3
			C15,99.4,99.4,15,203.2,15s188.2,84.4,188.2,188.2s-84.4,188.2-188.2,188.2c-43.3,0-84-14.3-117.7-41.4c-3.2-2.6-8-2.1-10.5,1.2
			c-2.6,3.2-2.1,8,1.2,10.5c35.9,28.8,81,44.7,127.1,44.7c38.4,0,74.3-10.7,105-29.3l120.6,120.6c9.2,9.2,21.5,14.3,34.5,14.3
			c13,0,25.3-5.1,34.5-14.3C513.4,482,516.5,457.7,505.3,438.6z M320.9,368.7c18.4-13.2,34.6-29.3,47.7-47.7l82.6,82.6l-47.7,47.7
			L320.9,368.7z"/>
	</g>
</g>
</svg>
