<?xml version="1.0" encoding="iso-8859-1"?>
<svg version="1.1" id="Capa_1" xmlns="http://www.w3.org/2000/svg" xmlns:xlink="http://www.w3.org/1999/xlink" x="0px" y="0px"
	 viewBox="0 0 512.002 512.002" style="enable-background:new 0 0 512.002 512.002;" xml:space="preserve">
<g>
	<g>
		<g>
			<path d="M148.373,168.419v16.9c0,4.142,3.358,7.5,7.5,7.5c4.142,0,7.5-3.358,7.5-7.5v-16.9c0-4.142-3.358-7.5-7.5-7.5
				C151.73,160.919,148.373,164.277,148.373,168.419z"/>
			<path d="M491.315,474.174l-7.271-30.069c-7.107-29.395-22.666-55.696-44.996-76.059c-17.967-16.385-39.346-28.066-62.554-34.288
				c41.634-34.638,68.185-86.814,68.185-145.079c0-42.979-14.836-85.031-41.775-118.412c-2.602-3.224-7.325-3.728-10.546-1.126
				c-3.224,2.602-3.728,7.323-1.126,10.546c24.794,30.723,38.448,69.43,38.448,108.992c0,95.767-77.912,173.679-173.679,173.679
				S82.322,284.446,82.322,188.679S160.234,15,256.001,15c40.563,0,80.032,14.279,111.136,40.207
				c3.182,2.653,7.912,2.223,10.563-0.958c2.652-3.182,2.223-7.911-0.958-10.563C342.947,15.515,300.067,0,256.001,0
				C151.963,0,67.322,84.641,67.322,188.679c0,58.265,26.552,110.441,68.185,145.079c-23.208,6.222-44.587,17.903-62.554,34.288
				c-22.329,20.363-37.888,46.664-44.996,76.059l-7.27,30.069c-2.221,9.186-0.143,18.714,5.703,26.141
				C32.234,507.741,41.007,512,50.457,512h27.95c4.142,0,7.5-3.358,7.5-7.5c0-4.142-3.358-7.5-7.5-7.5h-27.95
				c-4.822,0-9.298-2.173-12.28-5.962c-2.982-3.79-4.043-8.651-2.91-13.338l7.271-30.069c6.401-26.476,20.414-50.163,40.523-68.501
				c19.236-17.543,42.814-29.076,68.333-33.503c7.255,4.851,14.859,9.22,22.773,13.045L209.756,497h-95.754
				c-4.142,0-7.5,3.358-7.5,7.5c0,4.142,3.358,7.5,7.5,7.5h105.399c0.008,0,0.016,0.002,0.023,0.002c0.01,0,0.021-0.002,0.031-0.002
				h73.091c0.01,0,0.021,0.002,0.031,0.002c0.008,0,0.016-0.002,0.023-0.002h168.944c9.45,0,18.223-4.259,24.067-11.685
				C491.457,492.888,493.536,483.36,491.315,474.174z M286.757,497h-61.513l-33.699-130.985
				c20.121,7.336,41.829,11.344,64.456,11.344s44.335-4.007,64.456-11.344L286.757,497z M473.825,491.038
				c-2.982,3.789-7.458,5.962-12.28,5.962H302.246l35.588-138.329c7.915-3.826,15.518-8.194,22.773-13.045
				c25.519,4.427,49.097,15.96,68.333,33.503c20.109,18.338,34.122,42.025,40.523,68.501l7.271,30.069
				C477.868,482.386,476.808,487.248,473.825,491.038z"/>
			<path d="M235.261,162.225c-8.429,0-15.287,6.858-15.287,15.287v20.74c0,19.865,16.162,36.027,36.027,36.027
				c19.865,0,36.027-16.162,36.027-36.027v-20.74c0-8.429-6.858-15.287-15.287-15.287H235.261z M277.028,177.512v20.74
				c0,11.594-9.433,21.027-21.027,21.027c-11.594,0-21.027-9.433-21.027-21.027v-20.74c0-0.158,0.129-0.287,0.287-0.287h41.479
				C276.899,177.225,277.028,177.354,277.028,177.512z"/>
			<path d="M348.629,168.419v16.9c0,4.142,3.358,7.5,7.5,7.5c4.142,0,7.5-3.358,7.5-7.5v-16.9c0-4.142-3.358-7.5-7.5-7.5
				C351.987,160.919,348.629,164.277,348.629,168.419z"/>
		</g>
	</g>
</g>
</svg>
